<svg width="193" height="242" viewBox="0 0 193 242" fill="none" xmlns="http://www.w3.org/2000/svg">
<path d="M234.598 86.3814C230.233 65.7599 224.089 44.7189 209.397 29.6071C176.123 -4.62987 133.815 10.652 116.991 26.4441C106.595 36.205 99.759 49.8318 99.6456 64.0934C99.5323 78.355 100.949 107.218 137.658 109.905C144.108 110.381 176.724 104.996 148.745 78.6724C116.288 48.1313 81.9604 66.7915 69.0932 75.2147C40.536 93.909 47.1338 133.418 70.9636 154.855C100.791 181.701 146.387 199.454 185.725 198.298C209.669 197.583 231.651 175.67 207.707 155.887C190.317 141.512 33.972 110.529 11.0151 198.094C-0.718373 242.828 42.1571 260.128 55.2284 264.901C111.198 285.33 190.997 278.29 230.868 231.968" stroke="white" stroke-opacity="0.3" stroke-width="18" stroke-miterlimit="10" stroke-linecap="round"/>
</svg>
