<svg width="266" height="254" viewBox="0 0 266 254" fill="none" xmlns="http://www.w3.org/2000/svg">
<path d="M-4.96106 33.2368C0.743512 38.7721 6.52587 44.2907 13.2773 48.4812C32.553 60.921 59.2652 59.7586 75.3973 43.3158C85.4218 33.9414 92.7108 21.3055 104.644 14.0382C114.857 7.35979 129.546 6.90826 138.549 15.1689C163.005 36.0945 121.556 85.1446 150.132 97.784C169.483 105.793 190.268 94.6934 208.985 90.5025C216.401 88.9492 224.207 88.6898 231.472 91.1087C244.231 94.9891 254.994 108.37 256.059 122.383C257.383 136.311 251.886 151.1 240.163 158.62C217.536 172.07 201.645 132.389 178.667 142.092C160.295 152.046 173.959 173.259 175.095 190.123C175.549 194.82 175.334 199.686 173.964 204.172C167.906 223.912 145.134 225.696 130.981 212.854C102.876 187.793 115.735 143.275 93.2388 114.891C71.484 87.4443 31.4813 88.1865 16.8832 121.318C8.48698 140.174 18.2769 162.929 34.0766 174.271C44.952 182.665 58.548 187.306 68.8668 196.513C86.2845 211.117 83.7648 239.72 59.7257 244.476C42.5538 247.045 26.924 232.949 10.028 229.028C0.902849 226.61 -8.67145 226.728 -18.0273 227.159" stroke="#F6734C" stroke-width="18" stroke-miterlimit="10" stroke-linecap="round"/>
</svg>
