<svg width="255" height="189" viewBox="0 0 255 189" fill="none" xmlns="http://www.w3.org/2000/svg">
<path d="M-30.7486 128.553C-10.8713 116.362 119.839 27.3793 135.286 20.839C150.732 14.2986 182.234 -0.278683 212.963 17.5098C239.702 32.9953 236.478 59.0045 235.041 67.5581C220.801 151.896 149.622 170.674 83.5444 140.353C57.588 128.443 35.125 97.9214 36.9668 67.05C37.4444 59.0609 39.3089 50.9559 43.8066 44.3436C48.0251 38.1371 54.3742 33.572 61.2952 30.682C81.6221 22.1932 105.682 28.1762 123.907 40.5444C142.132 52.9126 155.704 70.851 168.938 88.4707C180.028 103.246 191.13 118.013 201.803 133.097C212.476 148.18 238.274 192.222 245.371 208.906" stroke="white" stroke-opacity="0.3" stroke-width="18" stroke-miterlimit="10" stroke-linecap="round"/>
</svg>
