<svg width="32" height="32" viewBox="0 0 32 32" fill="none" xmlns="http://www.w3.org/2000/svg">
<path d="M16 0C9.384 0 4 5.42133 4 12.0867C4 21.5573 14.872 31.336 15.3347 31.7467C15.5253 31.916 15.7627 32 16 32C16.2373 32 16.4747 31.916 16.6653 31.748C17.128 31.336 28 21.5573 28 12.0867C28 5.42133 22.616 0 16 0ZM16 18.6667C12.324 18.6667 9.33333 15.676 9.33333 12C9.33333 8.324 12.324 5.33333 16 5.33333C19.676 5.33333 22.6667 8.324 22.6667 12C22.6667 15.676 19.676 18.6667 16 18.6667Z" fill="#F6734C"/>
<path d="M15.1667 14.5001V14.0001H13.5C13.3167 14.0001 13.15 13.9267 13.03 13.8034C12.9067 13.6834 12.8334 13.5167 12.8334 13.3334C12.8334 12.9901 13.1 12.7034 13.4367 12.6701C13.4567 12.6667 13.4767 12.6667 13.5 12.6667H18.5C18.5234 12.6667 18.5434 12.6667 18.5634 12.6701C18.7234 12.6834 18.8634 12.7534 18.97 12.8634C19.1067 12.9967 19.18 13.1867 19.1634 13.3934C19.1334 13.7434 18.8167 14.0001 18.4634 14.0001H16.8334V14.5001C16.8334 14.9601 16.46 15.3334 16 15.3334C15.54 15.3334 15.1667 14.9601 15.1667 14.5001Z" fill="#F6734C"/>
<path d="M17.7298 8.66675H16.4165C16.3232 8.66675 16.2498 8.74008 16.2498 8.83341V9.33341C16.2498 9.47008 16.1365 9.58341 15.9998 9.58341C15.9698 9.58341 15.9432 9.57675 15.9165 9.56675C15.8198 9.53341 15.7498 9.44008 15.7498 9.33341V8.83341C15.7498 8.74008 15.6765 8.66675 15.5832 8.66675H15.0798C14.9865 8.66675 14.9132 8.74008 14.9132 8.83341V10.3334C14.9132 10.4701 14.7998 10.5834 14.6632 10.5834C14.5265 10.5834 14.4132 10.4701 14.4132 10.3334V9.58341V8.83341C14.4132 8.74341 14.3465 8.67341 14.2565 8.66675H14.2465C13.6665 8.68008 13.2165 9.18341 13.2765 9.76675L13.3998 12.0167C13.4098 12.1934 13.5565 12.3334 13.7332 12.3334H18.2665C18.4432 12.3334 18.5898 12.1934 18.5998 12.0167L18.7232 9.76675C18.7832 9.17675 18.3198 8.66675 17.7298 8.66675Z" fill="#F6734C"/>
</svg>
